<?xml version="1.0" encoding="UTF-8"?>
<!DOCTYPE svg PUBLIC "-//W3C//DTD SVG 1.1//EN" "http://www.w3.org/Graphics/SVG/1.1/DTD/svg11.dtd">
<svg xmlns="http://www.w3.org/2000/svg" version="1.1" width="149px" height="149px" style="shape-rendering:geometricPrecision; text-rendering:geometricPrecision; image-rendering:optimizeQuality; fill-rule:evenodd; clip-rule:evenodd" xmlns:xlink="http://www.w3.org/1999/xlink">
<g><path style="opacity:1" fill="#040404" d="M 61.5,7.5 C 70.5211,7.40112 79.5211,7.73445 88.5,8.5C 112.736,15.0686 129.403,30.0686 138.5,53.5C 138.5,53.8333 138.5,54.1667 138.5,54.5C 138.565,57.4282 139.232,60.0948 140.5,62.5C 141.63,69.7535 141.796,77.0869 141,84.5C 140.594,87.7422 139.761,90.7422 138.5,93.5C 135.38,101.073 131.713,108.407 127.5,115.5C 123.369,119.13 119.369,122.963 115.5,127C 111.258,129.61 107.258,132.443 103.5,135.5C 95.9232,137.635 88.2565,139.468 80.5,141C 72.7367,141.805 65.07,141.305 57.5,139.5C 55.4855,138.076 53.1522,137.41 50.5,137.5C 50.1667,137.5 49.8333,137.5 49.5,137.5C 47.3155,135.415 44.6489,134.415 41.5,134.5C 27.6486,126.318 17.3153,114.985 10.5,100.5C 9.5376,96.6052 8.20427,92.9385 6.5,89.5C 5.70129,80.8577 5.36796,72.1911 5.5,63.5C 7.02656,59.7331 8.02656,55.7331 8.5,51.5C 18.3246,27.3385 35.9912,12.6719 61.5,7.5 Z M 86.5,49.5 C 86.7035,47.6096 86.0368,46.1096 84.5,45C 78.5,44.3333 72.5,44.3333 66.5,45C 66,45.5 65.5,46 65,46.5C 63.8667,53.733 63.3667,61.0664 63.5,68.5C 63.5004,75.3419 63.8337,82.0086 64.5,88.5C 64.5106,90.0174 65.1772,91.1841 66.5,92C 72.6812,92.8192 78.6812,92.6525 84.5,91.5C 85.4959,91.5858 86.3292,91.2524 87,90.5C 87.3333,84.1667 87.6667,77.8333 88,71.5C 89.8245,69.1762 91.9912,68.8428 94.5,70.5C 94.6662,76.8421 94.4995,83.1754 94,89.5C 90.0893,96.376 84.0893,99.0427 76,97.5C 67.8203,98.8933 61.487,96.2266 57,89.5C 56.2165,74.8012 56.3832,60.1345 57.5,45.5C 59.9774,43.7587 62.6441,42.2587 65.5,41C 72.1667,40.3333 78.8333,40.3333 85.5,41C 93.0332,43.9046 95.3665,49.2379 92.5,57C 90.8876,57.7203 89.3876,57.5536 88,56.5C 87.7096,54.0796 87.2096,51.7463 86.5,49.5 Z M 80.5,66.5 C 82.7204,70.9853 81.5537,73.9853 77,75.5C 71.4871,74.2275 70.3205,71.3942 73.5,67C 75.8098,66.5034 78.1432,66.3367 80.5,66.5 Z"/></g>
<g><path style="opacity:0.047" fill="#d9d9d9" d="M 138.5,53.5 C 129.403,30.0686 112.736,15.0686 88.5,8.5C 83.5991,6.94809 78.4324,6.28142 73,6.5C 68.9848,6.5012 65.1515,6.83453 61.5,7.5C 35.9912,12.6719 18.3246,27.3385 8.5,51.5C 11.6732,39.4669 18.0066,29.3002 27.5,21C 33.1667,17.3333 38.8333,13.6667 44.5,10C 85.8379,-3.81402 116.671,8.35265 137,46.5C 137.977,48.74 138.477,51.0733 138.5,53.5 Z"/></g>
<g><path style="opacity:0.89" fill="#2b2b2b" d="M 61.5,7.5 C 65.1515,6.83453 68.9848,6.5012 73,6.5C 78.4324,6.28142 83.5991,6.94809 88.5,8.5C 79.5211,7.73445 70.5211,7.40112 61.5,7.5 Z"/></g>
<g><path style="opacity:0.109" fill="#efefef" d="M 86.5,49.5 C 86.1667,49.5 85.8333,49.5 85.5,49.5C 85.0472,48.5416 84.3805,47.7083 83.5,47C 77.5837,46.1928 71.7504,46.3594 66,47.5C 64.536,61.0683 64.036,74.735 64.5,88.5C 63.8337,82.0086 63.5004,75.3419 63.5,68.5C 63.3667,61.0664 63.8667,53.733 65,46.5C 65.5,46 66,45.5 66.5,45C 72.5,44.3333 78.5,44.3333 84.5,45C 86.0368,46.1096 86.7035,47.6096 86.5,49.5 Z"/></g>
<g><path style="opacity:0.022" fill="#d4d4d4" d="M 85.5,49.5 C 85.8333,49.5 86.1667,49.5 86.5,49.5C 87.2096,51.7463 87.7096,54.0796 88,56.5C 89.3876,57.5536 90.8876,57.7203 92.5,57C 95.3665,49.2379 93.0332,43.9046 85.5,41C 78.8333,40.3333 72.1667,40.3333 65.5,41C 62.6441,42.2587 59.9774,43.7587 57.5,45.5C 58.7671,41.7427 61.4338,39.5761 65.5,39C 72.1667,38.3333 78.8333,38.3333 85.5,39C 94.1789,42.6539 97.0122,49.1539 94,58.5C 91.0431,60.0774 88.3764,59.7441 86,57.5C 85.5026,54.854 85.3359,52.1873 85.5,49.5 Z"/></g>
<g><path style="opacity:0.486" fill="#b9b9b9" d="M 8.5,51.5 C 8.02656,55.7331 7.02656,59.7331 5.5,63.5C 5.30823,59.0981 6.30823,55.0981 8.5,51.5 Z"/></g>
<g><path style="opacity:0.431" fill="#b7b7b7" d="M 138.5,54.5 C 140.04,56.8383 140.706,59.5049 140.5,62.5C 139.232,60.0948 138.565,57.4282 138.5,54.5 Z"/></g>
<g><path style="opacity:0.029" fill="#bfbfbf" d="M 95.5,70.5 C 95.1667,70.5 94.8333,70.5 94.5,70.5C 91.9912,68.8428 89.8245,69.1762 88,71.5C 87.6667,77.8333 87.3333,84.1667 87,90.5C 86.3292,91.2524 85.4959,91.5858 84.5,91.5C 84.9867,90.5266 85.4867,89.5266 86,88.5C 86.3333,82.1667 86.6667,75.8333 87,69.5C 90.315,66.5614 93.1483,66.8947 95.5,70.5 Z"/></g>
<g><path style="opacity:0.11" fill="#cecece" d="M 80.5,66.5 C 83.8363,68.5266 84.3363,71.1932 82,74.5C 77.8916,78.7204 74.2249,78.3871 71,73.5C 69.4471,68.0621 71.4471,65.0621 77,64.5C 78.6811,64.6083 79.8478,65.2749 80.5,66.5 Z M 80.5,66.5 C 78.1432,66.3367 75.8098,66.5034 73.5,67C 70.3205,71.3942 71.4871,74.2275 77,75.5C 81.5537,73.9853 82.7204,70.9853 80.5,66.5 Z"/></g>
<g><path style="opacity:0.216" fill="#dcdcdc" d="M 5.5,63.5 C 5.36796,72.1911 5.70129,80.8577 6.5,89.5C 4.9925,84.5873 4.32584,79.4207 4.5,74C 4.50145,70.3167 4.83478,66.8167 5.5,63.5 Z"/></g>
<g><path style="opacity:0.008" fill="#d8d8d8" d="M 6.5,89.5 C 8.20427,92.9385 9.5376,96.6052 10.5,100.5C 8.01034,97.3743 6.677,93.7076 6.5,89.5 Z"/></g>
<g><path style="opacity:0.014" fill="#d7d7d7" d="M 138.5,93.5 C 137.472,102.222 133.806,109.556 127.5,115.5C 131.713,108.407 135.38,101.073 138.5,93.5 Z"/></g>
<g><path style="opacity:0.107" fill="#dcdcdc" d="M 57.5,45.5 C 56.3832,60.1345 56.2165,74.8012 57,89.5C 61.487,96.2266 67.8203,98.8933 76,97.5C 84.0893,99.0427 90.0893,96.376 94,89.5C 94.4995,83.1754 94.6662,76.8421 94.5,70.5C 94.8333,70.5 95.1667,70.5 95.5,70.5C 95.6663,77.175 95.4996,83.8417 95,90.5C 93.4509,95.0416 90.2843,97.8749 85.5,99C 78.8333,99.6667 72.1667,99.6667 65.5,99C 60.7647,97.9319 57.5981,95.0986 56,90.5C 55.3333,75.8333 55.3333,61.1667 56,46.5C 56.3826,45.944 56.8826,45.6107 57.5,45.5 Z"/></g>
<g><path style="opacity:0.191" fill="#dadada" d="M 64.5,88.5 C 65.6266,89.1217 66.6266,89.955 67.5,91C 73.1569,91.4994 78.8236,91.6661 84.5,91.5C 78.6812,92.6525 72.6812,92.8192 66.5,92C 65.1772,91.1841 64.5106,90.0174 64.5,88.5 Z"/></g>
<g><path style="opacity:0.059" fill="#e0e0e0" d="M 127.5,115.5 C 126.588,117.595 125.421,119.595 124,121.5C 120.201,124.297 116.701,127.464 113.5,131C 110.531,133.318 107.198,134.818 103.5,135.5C 107.258,132.443 111.258,129.61 115.5,127C 119.369,122.963 123.369,119.13 127.5,115.5 Z"/></g>
<g><path style="opacity:0.129" fill="#dbdbdb" d="M 10.5,100.5 C 17.3153,114.985 27.6486,126.318 41.5,134.5C 37.5264,133.379 33.8597,131.546 30.5,129C 21.1827,121.211 14.516,111.711 10.5,100.5 Z"/></g>
<g><path style="opacity:0.792" fill="#8b8b8b" d="M 41.5,134.5 C 44.6489,134.415 47.3155,135.415 49.5,137.5C 48.8333,137.5 48.1667,137.5 47.5,137.5C 45.1815,137.008 43.1815,136.008 41.5,134.5 Z"/></g>
<g><path style="opacity:0.237" fill="#d1d1d1" d="M 103.5,135.5 C 85.1178,145.1 66.4512,145.767 47.5,137.5C 48.1667,137.5 48.8333,137.5 49.5,137.5C 49.8333,137.5 50.1667,137.5 50.5,137.5C 52.5145,138.924 54.8478,139.59 57.5,139.5C 65.07,141.305 72.7367,141.805 80.5,141C 88.2565,139.468 95.9232,137.635 103.5,135.5 Z"/></g>
<g><path style="opacity:0.882" fill="#4b4b4b" d="M 50.5,137.5 C 53.1522,137.41 55.4855,138.076 57.5,139.5C 54.8478,139.59 52.5145,138.924 50.5,137.5 Z"/></g>
</svg>
