<?xml version="1.0" encoding="UTF-8"?>
<!DOCTYPE svg PUBLIC "-//W3C//DTD SVG 1.1//EN" "http://www.w3.org/Graphics/SVG/1.1/DTD/svg11.dtd">
<svg xmlns="http://www.w3.org/2000/svg" version="1.1" width="706px" height="353px" style="shape-rendering:geometricPrecision; text-rendering:geometricPrecision; image-rendering:optimizeQuality; fill-rule:evenodd; clip-rule:evenodd" xmlns:xlink="http://www.w3.org/1999/xlink">
<g><path style="opacity:0.983" fill="#080808" d="M 129.5,138.5 C 129.427,140.027 130.094,141.027 131.5,141.5C 133.892,145.278 136.059,149.278 138,153.5C 142.633,169.831 142.633,186.165 138,202.5C 136.787,204.925 135.621,207.259 134.5,209.5C 132.75,210.659 131.75,212.326 131.5,214.5C 129.518,217.81 127.185,220.81 124.5,223.5C 123.167,224.167 122.167,225.167 121.5,226.5C 115.778,233.869 108.444,239.036 99.5,242C 69.3655,252.424 43.1988,246.257 21,223.5C 18.5633,220.28 16.3967,216.947 14.5,213.5C 14.573,211.973 13.9063,210.973 12.5,210.5C 9.34222,205.367 7.34222,199.7 6.5,193.5C 6.46134,189.267 5.79468,185.267 4.5,181.5C 4.22562,176.737 4.55896,172.07 5.5,167.5C 6.7682,165.095 7.43487,162.428 7.5,159.5C 8.47822,153.221 10.8116,147.555 14.5,142.5C 15.9063,142.027 16.573,141.027 16.5,139.5C 18.2624,138.738 19.2624,137.404 19.5,135.5C 21.3719,132.418 23.7052,129.751 26.5,127.5C 28.0269,127.573 29.0269,126.906 29.5,125.5C 31.8599,123.147 34.5265,121.147 37.5,119.5C 39.0269,119.573 40.0269,118.906 40.5,117.5C 55.5912,109.635 71.5912,107.468 88.5,111C 105.53,115.18 119.197,124.346 129.5,138.5 Z M 65.5,144.5 C 72.175,144.334 78.8417,144.5 85.5,145C 92.9589,147.985 95.4589,153.485 93,161.5C 91.6439,162.38 90.1439,162.714 88.5,162.5C 87.9216,159.72 87.2549,157.053 86.5,154.5C 86.5,154.167 86.5,153.833 86.5,153.5C 86.573,151.973 85.9063,150.973 84.5,150.5C 78.6812,149.347 72.6812,149.181 66.5,150C 65.2986,150.903 64.4652,152.069 64,153.5C 63.3333,166.5 63.3333,179.5 64,192.5C 64.4652,193.931 65.2986,195.097 66.5,196C 73.276,196.92 79.9427,196.586 86.5,195C 87.3129,188.581 87.8129,182.081 88,175.5C 89.67,173.302 91.67,172.968 94,174.5C 94.6667,181.167 94.6667,187.833 94,194.5C 92.5136,198.498 89.6803,200.998 85.5,202C 79.1667,202.667 72.8333,202.667 66.5,202C 61.7396,200.904 58.5729,198.071 57,193.5C 56.3333,179.833 56.3333,166.167 57,152.5C 57.5985,149.746 59.0985,147.746 61.5,146.5C 63.153,146.34 64.4863,145.674 65.5,144.5 Z M 82.5,174.5 C 81.5592,176.05 80.8925,177.716 80.5,179.5C 74.2004,181.275 71.3671,178.941 72,172.5C 76.2891,169.492 79.7891,170.159 82.5,174.5 Z"/></g>
<g><path style="opacity:0.235" fill="#7d7d7d" d="M 40.5,117.5 C 40.0269,118.906 39.0269,119.573 37.5,119.5C 37.9731,118.094 38.9731,117.427 40.5,117.5 Z"/></g>
<g><path style="opacity:0.076" fill="#5c5c5c" d="M 505.5,120.5 C 503.039,121.531 500.373,122.198 497.5,122.5C 499.78,120.777 502.447,120.111 505.5,120.5 Z"/></g>
<g><path style="opacity:0.932" fill="#0f0f0f" d="M 505.5,120.5 C 507.113,120.944 508.28,121.944 509,123.5C 509.667,153.5 509.667,183.5 509,213.5C 505.23,216.958 501.23,217.291 497,214.5C 496.5,195.17 496.333,175.836 496.5,156.5C 488.16,156.334 479.827,156.5 471.5,157C 469.667,157.5 468.5,158.667 468,160.5C 467.186,173.546 467.353,186.546 468.5,199.5C 469.025,200.192 469.692,200.692 470.5,201C 475.833,201.333 481.167,201.667 486.5,202C 488.32,202.2 489.653,203.034 490.5,204.5C 490.848,208.085 490.181,211.418 488.5,214.5C 481.679,215.655 474.679,215.821 467.5,215C 459.683,214.19 454.849,210.023 453,202.5C 452.333,187.5 452.333,172.5 453,157.5C 453.21,155.942 453.71,154.609 454.5,153.5C 456.262,152.738 457.262,151.404 457.5,149.5C 460.413,147.13 463.746,145.296 467.5,144C 477.161,143.5 486.828,143.334 496.5,143.5C 496.175,136.313 496.509,129.313 497.5,122.5C 500.373,122.198 503.039,121.531 505.5,120.5 Z"/></g>
<g><path style="opacity:0.246" fill="#424242" d="M 211.5,122.5 C 199.803,122.254 188.136,122.587 176.5,123.5C 177.263,122.732 178.263,122.232 179.5,122C 190.341,121.175 201.008,121.341 211.5,122.5 Z"/></g>
<g><path style="opacity:0.925" fill="#121212" d="M 366.5,150.5 C 366.427,152.027 367.094,153.027 368.5,153.5C 369.29,154.609 369.79,155.942 370,157.5C 370.667,172.5 370.667,187.5 370,202.5C 368.151,210.023 363.317,214.19 355.5,215C 348.833,215.667 342.167,215.667 335.5,215C 333.115,213.537 332.115,211.371 332.5,208.5C 332.326,206.307 332.993,204.473 334.5,203C 340.782,201.908 347.116,201.242 353.5,201C 354.701,200.097 355.535,198.931 356,197.5C 356.667,185.833 356.667,174.167 356,162.5C 355.401,159.746 353.901,157.746 351.5,156.5C 343.35,155.507 335.017,155.174 326.5,155.5C 326.5,173.5 326.5,191.5 326.5,209.5C 326.615,213.887 324.449,216.22 320,216.5C 316.645,216.248 314.312,214.581 313,211.5C 312.333,182.5 312.333,153.5 313,124.5C 314.639,121.771 317.139,120.438 320.5,120.5C 322.593,120.486 324.426,121.152 326,122.5C 327.384,129.411 327.884,136.411 327.5,143.5C 336.839,143.334 346.173,143.5 355.5,144C 359.858,145.172 363.525,147.339 366.5,150.5 Z"/></g>
<g><path style="opacity:0.947" fill="#151515" d="M 211.5,122.5 C 218.52,123.361 223.354,127.028 226,133.5C 226.667,139.833 226.667,146.167 226,152.5C 222.921,155.485 219.421,156.152 215.5,154.5C 215.027,153.094 214.027,152.427 212.5,152.5C 211.133,147.105 209.8,141.605 208.5,136C 200.167,135.333 191.833,135.333 183.5,136C 182.299,136.903 181.465,138.069 181,139.5C 180.333,158.5 180.333,177.5 181,196.5C 181.833,198.667 183.333,200.167 185.5,201C 192.833,201.667 200.167,201.667 207.5,201C 208.527,200.487 209.527,199.987 210.5,199.5C 212.104,198.713 212.771,197.38 212.5,195.5C 212.334,186.494 212.5,177.494 213,168.5C 217.42,164.987 222.086,164.654 227,167.5C 228.954,179.478 228.954,191.478 227,203.5C 224.972,206.692 222.472,209.359 219.5,211.5C 217.847,211.66 216.514,212.326 215.5,213.5C 214.737,214.268 213.737,214.768 212.5,215C 201.833,215.667 191.167,215.667 180.5,215C 174.201,213.037 169.368,209.203 166,203.5C 164.365,180.897 164.032,158.23 165,135.5C 166.314,129.02 170.147,125.02 176.5,123.5C 188.136,122.587 199.803,122.254 211.5,122.5 Z"/></g>
<g><path style="opacity:0.954" fill="#111111" d="M 681.5,129.5 C 681.5,134.5 681.5,139.5 681.5,144.5C 685.5,144.5 689.5,144.5 693.5,144.5C 694.117,144.611 694.617,144.944 695,145.5C 695.667,148.5 695.667,151.5 695,154.5C 691.078,156.312 686.911,156.979 682.5,156.5C 682.167,171.515 682.501,186.515 683.5,201.5C 686.777,202.254 690.11,202.754 693.5,203C 695.523,206.183 696.023,209.683 695,213.5C 694.5,214 694,214.5 693.5,215C 689.167,215.667 684.833,215.667 680.5,215C 678.509,214.626 676.842,213.793 675.5,212.5C 674.713,210.896 673.38,210.229 671.5,210.5C 670.4,209.395 669.733,208.062 669.5,206.5C 668.875,189.359 668.208,172.359 667.5,155.5C 664.487,155.893 661.82,155.226 659.5,153.5C 658.167,150.833 658.167,148.167 659.5,145.5C 662.33,145.037 664.997,144.371 667.5,143.5C 667.5,142.833 667.5,142.167 667.5,141.5C 668.266,136.637 668.932,131.637 669.5,126.5C 672.64,125.359 675.973,125.192 679.5,126C 680.823,126.816 681.489,127.983 681.5,129.5 Z"/></g>
<g><path style="opacity:0.188" fill="#969696" d="M 29.5,125.5 C 29.0269,126.906 28.0269,127.573 26.5,127.5C 26.9731,126.094 27.9731,125.427 29.5,125.5 Z"/></g>
<g><path style="opacity:0.616" fill="#414141" d="M 669.5,126.5 C 668.932,131.637 668.266,136.637 667.5,141.5C 667.334,136.821 667.501,132.155 668,127.5C 668.383,126.944 668.883,126.611 669.5,126.5 Z"/></g>
<g><path style="opacity:0.2" fill="#838383" d="M 19.5,135.5 C 19.2624,137.404 18.2624,138.738 16.5,139.5C 16.7376,137.596 17.7376,136.262 19.5,135.5 Z"/></g>
<g><path style="opacity:0.243" fill="#7d7d7d" d="M 129.5,138.5 C 130.906,138.973 131.573,139.973 131.5,141.5C 130.094,141.027 129.427,140.027 129.5,138.5 Z"/></g>
<g><path style="opacity:0.078" fill="#a0a0a0" d="M 16.5,139.5 C 16.573,141.027 15.9063,142.027 14.5,142.5C 14.427,140.973 15.0937,139.973 16.5,139.5 Z"/></g>
<g><path style="opacity:0.157" fill="#535353" d="M 284.5,144.5 C 274.794,144.245 265.127,144.579 255.5,145.5C 255.918,144.778 256.584,144.278 257.5,144C 266.676,143.176 275.676,143.343 284.5,144.5 Z"/></g>
<g><path style="opacity:0.937" fill="#111111" d="M 387.5,142.5 C 390.862,142.07 393.695,143.07 396,145.5C 396.055,163.219 396.722,180.886 398,198.5C 398.833,199.333 399.667,200.167 400.5,201C 407.833,201.667 415.167,201.667 422.5,201C 423.701,200.097 424.535,198.931 425,197.5C 426.292,180.233 426.959,162.899 427,145.5C 430.647,141.911 434.647,141.577 439,144.5C 439.667,164.167 439.667,183.833 439,203.5C 436.164,209.837 431.331,213.67 424.5,215C 415.833,215.667 407.167,215.667 398.5,215C 390.444,213.278 385.277,208.444 383,200.5C 382.333,182.5 382.333,164.5 383,146.5C 383.907,144.391 385.407,143.058 387.5,142.5 Z"/></g>
<g><path style="opacity:0.137" fill="#565656" d="M 667.5,143.5 C 664.997,144.371 662.33,145.037 659.5,145.5C 659.611,144.883 659.944,144.383 660.5,144C 662.81,143.503 665.143,143.337 667.5,143.5 Z"/></g>
<g><path style="opacity:0.152" fill="#919191" d="M 681.5,129.5 C 682.486,133.97 682.819,138.637 682.5,143.5C 686.371,143.185 690.038,143.518 693.5,144.5C 689.5,144.5 685.5,144.5 681.5,144.5C 681.5,139.5 681.5,134.5 681.5,129.5 Z"/></g>
<g><path style="opacity:0.926" fill="#121212" d="M 284.5,144.5 C 287.655,144.977 290.655,145.977 293.5,147.5C 294.08,149.749 295.413,151.415 297.5,152.5C 298.793,153.842 299.626,155.509 300,157.5C 300.952,172.901 300.619,188.235 299,203.5C 296.833,208.333 293.333,211.833 288.5,214C 277.167,216 265.833,216 254.5,214C 249.667,211.833 246.167,208.333 244,203.5C 242.4,188.555 242.066,173.555 243,158.5C 243.139,155.555 244.306,153.221 246.5,151.5C 247.833,150.833 248.833,149.833 249.5,148.5C 251.181,146.992 253.181,145.992 255.5,145.5C 265.127,144.579 274.794,144.245 284.5,144.5 Z M 261.5,156.5 C 268.175,156.334 274.842,156.5 281.5,157C 283.667,157.833 285.167,159.333 286,161.5C 286.667,172.833 286.667,184.167 286,195.5C 285.654,197.848 284.487,199.681 282.5,201C 275.167,201.667 267.833,201.667 260.5,201C 259.667,200.167 258.833,199.333 258,198.5C 257.333,185.5 257.333,172.5 258,159.5C 259.145,158.364 260.312,157.364 261.5,156.5 Z"/></g>
<g><path style="opacity:0.951" fill="#141414" d="M 573.5,147.5 C 574.5,149.167 575.833,150.5 577.5,151.5C 579.132,154.558 580.299,157.891 581,161.5C 581.667,178.833 581.667,196.167 581,213.5C 580.608,221.889 576.441,227.389 568.5,230C 557.833,230.667 547.167,230.667 536.5,230C 530.336,229.371 526.336,226.204 524.5,220.5C 523.769,215.927 524.769,211.927 527.5,208.5C 530.293,207.254 532.96,207.587 535.5,209.5C 536.514,211.574 537.514,213.574 538.5,215.5C 538.5,216.833 539.167,217.5 540.5,217.5C 548.097,218.19 555.763,218.023 563.5,217C 564.416,216.626 565.25,216.126 566,215.5C 566.667,196.833 566.667,178.167 566,159.5C 565.097,158.299 563.931,157.465 562.5,157C 555.833,156.333 549.167,156.333 542.5,157C 541.584,157.374 540.75,157.874 540,158.5C 538.88,163.893 538.38,169.393 538.5,175C 538.38,180.607 538.88,186.107 540,191.5C 540.5,192 541,192.5 541.5,193C 547.914,193.207 554.247,193.707 560.5,194.5C 561.159,197.455 561.492,200.455 561.5,203.5C 561.423,204.75 560.756,205.583 559.5,206C 550.026,207.06 540.693,206.393 531.5,204C 527.42,201.688 524.92,198.188 524,193.5C 523.333,181.167 523.333,168.833 524,156.5C 524.232,155.263 524.732,154.263 525.5,153.5C 527.25,152.341 528.25,150.674 528.5,148.5C 535.816,144.079 543.816,142.412 552.5,143.5C 557.167,143.667 561.833,143.833 566.5,144C 569.174,144.67 571.507,145.837 573.5,147.5 Z"/></g>
<g><path style="opacity:0.93" fill="#131313" d="M 614.5,182.5 C 614.02,179.315 614.686,176.481 616.5,174C 623.013,173.828 629.347,173.328 635.5,172.5C 636.787,171.129 637.453,169.295 637.5,167C 637.862,163.204 636.862,159.871 634.5,157C 627.167,156.333 619.833,156.333 612.5,157C 611.299,157.903 610.465,159.069 610,160.5C 609.333,172.833 609.333,185.167 610,197.5C 610.465,198.931 611.299,200.097 612.5,201C 619.833,201.667 627.167,201.667 634.5,201C 636.633,197.368 638.299,193.535 639.5,189.5C 649.096,186.36 653.263,189.694 652,199.5C 650.176,207.991 645.009,213.158 636.5,215C 627.5,215.667 618.5,215.667 609.5,215C 601.667,213.167 596.833,208.333 595,200.5C 594.333,186.167 594.333,171.833 595,157.5C 596.771,150.395 601.271,145.895 608.5,144C 618.167,143.333 627.833,143.333 637.5,144C 649.604,147.851 654.604,156.184 652.5,169C 652.333,172.5 652.167,176 652,179.5C 651.417,181.002 650.584,182.335 649.5,183.5C 643.628,185.036 637.628,185.702 631.5,185.5C 627.167,185.333 622.833,185.167 618.5,185C 616.68,184.8 615.347,183.966 614.5,182.5 Z"/></g>
<g><path style="opacity:0.004" fill="#d0d0d0" d="M 65.5,144.5 C 64.4863,145.674 63.153,146.34 61.5,146.5C 62.287,144.896 63.6203,144.229 65.5,144.5 Z"/></g>
<g><path style="opacity:0.004" fill="#c9c9c9" d="M 573.5,147.5 C 575.833,147.833 577.167,149.167 577.5,151.5C 575.833,150.5 574.5,149.167 573.5,147.5 Z"/></g>
<g><path style="opacity:0.149" fill="#a6a6a6" d="M 293.5,147.5 C 295.587,148.585 296.92,150.251 297.5,152.5C 295.413,151.415 294.08,149.749 293.5,147.5 Z"/></g>
<g><path style="opacity:0.145" fill="#969696" d="M 249.5,148.5 C 248.833,149.833 247.833,150.833 246.5,151.5C 246.5,149.5 247.5,148.5 249.5,148.5 Z"/></g>
<g><path style="opacity:0.145" fill="#858585" d="M 528.5,148.5 C 528.25,150.674 527.25,152.341 525.5,153.5C 525.75,151.326 526.75,149.659 528.5,148.5 Z"/></g>
<g><path style="opacity:0.29" fill="#838383" d="M 457.5,149.5 C 457.262,151.404 456.262,152.738 454.5,153.5C 454.738,151.596 455.738,150.262 457.5,149.5 Z"/></g>
<g><path style="opacity:0.184" fill="#969696" d="M 366.5,150.5 C 367.906,150.973 368.573,151.973 368.5,153.5C 367.094,153.027 366.427,152.027 366.5,150.5 Z"/></g>
<g><path style="opacity:0.161" fill="#898989" d="M 84.5,150.5 C 85.9063,150.973 86.573,151.973 86.5,153.5C 85.0937,153.027 84.427,152.027 84.5,150.5 Z"/></g>
<g><path style="opacity:0.188" fill="#8c8c8c" d="M 212.5,152.5 C 214.027,152.427 215.027,153.094 215.5,154.5C 213.973,154.573 212.973,153.906 212.5,152.5 Z"/></g>
<g><path style="opacity:0.095" fill="#bcbcbc" d="M 659.5,153.5 C 661.82,155.226 664.487,155.893 667.5,155.5C 667.5,155.833 667.5,156.167 667.5,156.5C 665.143,156.663 662.81,156.497 660.5,156C 659.748,155.329 659.414,154.496 659.5,153.5 Z"/></g>
<g><path style="opacity:0.614" fill="#444444" d="M 667.5,155.5 C 668.208,172.359 668.875,189.359 669.5,206.5C 668.778,206.082 668.278,205.416 668,204.5C 667.5,188.503 667.333,172.503 667.5,156.5C 667.5,156.167 667.5,155.833 667.5,155.5 Z"/></g>
<g><path style="opacity:0.055" fill="#8f8f8f" d="M 86.5,154.5 C 87.2549,157.053 87.9216,159.72 88.5,162.5C 86.631,160.365 85.9644,157.698 86.5,154.5 Z"/></g>
<g><path style="opacity:0.918" fill="#181818" d="M 201.5,160.5 C 201.973,161.906 202.973,162.573 204.5,162.5C 204.833,163.5 205.5,164.167 206.5,164.5C 208.968,168.615 209.135,172.949 207,177.5C 203.174,181.459 198.674,182.459 193.5,180.5C 192.738,178.738 191.404,177.738 189.5,177.5C 185.6,169.138 187.933,163.305 196.5,160C 198.265,159.36 199.932,159.527 201.5,160.5 Z"/></g>
<g><path style="opacity:0.051" fill="#b2b2b2" d="M 201.5,160.5 C 203.027,160.427 204.027,161.094 204.5,162.5C 202.973,162.573 201.973,161.906 201.5,160.5 Z"/></g>
<g><path style="opacity:0.004" fill="#b4b4b4" d="M 204.5,162.5 C 205.833,162.5 206.5,163.167 206.5,164.5C 205.5,164.167 204.833,163.5 204.5,162.5 Z"/></g>
<g><path style="opacity:0.231" fill="#6c6c6c" d="M 7.5,159.5 C 7.43487,162.428 6.7682,165.095 5.5,167.5C 5.29379,164.505 5.96046,161.838 7.5,159.5 Z"/></g>
<g><path style="opacity:0.182" fill="#bdbdbd" d="M 635.5,172.5 C 629.347,173.328 623.013,173.828 616.5,174C 614.686,176.481 614.02,179.315 614.5,182.5C 612.973,179.204 613.307,176.038 615.5,173C 622.158,172.5 628.825,172.334 635.5,172.5 Z"/></g>
<g><path style="opacity:0.051" fill="#a7a7a7" d="M 82.5,174.5 C 83.3491,176.51 82.6824,178.177 80.5,179.5C 80.8925,177.716 81.5592,176.05 82.5,174.5 Z"/></g>
<g><path style="opacity:0.216" fill="#949494" d="M 189.5,177.5 C 191.404,177.738 192.738,178.738 193.5,180.5C 191.596,180.262 190.262,179.262 189.5,177.5 Z"/></g>
<g><path style="opacity:0.051" fill="#656565" d="M 351.5,156.5 C 343.5,156.5 335.5,156.5 327.5,156.5C 327.83,174.341 327.497,192.008 326.5,209.5C 326.5,191.5 326.5,173.5 326.5,155.5C 335.017,155.174 343.35,155.507 351.5,156.5 Z"/></g>
<g><path style="opacity:0.247" fill="#747474" d="M 4.5,181.5 C 5.79468,185.267 6.46134,189.267 6.5,193.5C 5.01086,189.764 4.3442,185.764 4.5,181.5 Z"/></g>
<g><path style="opacity:0.144" fill="#a1a1a1" d="M 560.5,194.5 C 561.94,195.946 562.607,197.779 562.5,200C 562.486,201.385 562.152,202.551 561.5,203.5C 561.492,200.455 561.159,197.455 560.5,194.5 Z"/></g>
<g><path style="opacity:0.075" fill="#8c8c8c" d="M 212.5,195.5 C 212.771,197.38 212.104,198.713 210.5,199.5C 210.66,197.847 211.326,196.514 212.5,195.5 Z"/></g>
<g><path style="opacity:0.241" fill="#898989" d="M 490.5,204.5 C 491.634,206.966 491.801,209.633 491,212.5C 490.583,213.756 489.75,214.423 488.5,214.5C 489.75,214.423 490.583,213.756 491,212.5C 491.801,209.633 491.634,206.966 490.5,204.5 Z"/></g>
<g><path style="opacity:0.075" fill="#a6a6a6" d="M 671.5,210.5 C 673.38,210.229 674.713,210.896 675.5,212.5C 673.847,212.34 672.514,211.674 671.5,210.5 Z"/></g>
<g><path style="opacity:0.102" fill="#939393" d="M 134.5,209.5 C 134.25,211.674 133.25,213.341 131.5,214.5C 131.75,212.326 132.75,210.659 134.5,209.5 Z"/></g>
<g><path style="opacity:0.043" fill="#b3b3b3" d="M 12.5,210.5 C 13.9063,210.973 14.573,211.973 14.5,213.5C 13.0937,213.027 12.427,212.027 12.5,210.5 Z"/></g>
<g><path style="opacity:0.055" fill="#b9b9b9" d="M 219.5,211.5 C 218.713,213.104 217.38,213.771 215.5,213.5C 216.514,212.326 217.847,211.66 219.5,211.5 Z"/></g>
<g><path style="opacity:0.145" fill="#818181" d="M 535.5,209.5 C 537.969,210.607 538.969,212.607 538.5,215.5C 537.514,213.574 536.514,211.574 535.5,209.5 Z"/></g>
<g><path style="opacity:0.2" fill="#a4a4a4" d="M 527.5,208.5 C 524.769,211.927 523.769,215.927 524.5,220.5C 523.359,217.36 523.192,214.027 524,210.5C 524.816,209.177 525.983,208.511 527.5,208.5 Z"/></g>
<g><path style="opacity:0.153" fill="#c6c6c6" d="M 538.5,215.5 C 539.5,215.833 540.167,216.5 540.5,217.5C 539.167,217.5 538.5,216.833 538.5,215.5 Z"/></g>
<g><path style="opacity:0.004" fill="#cdcdcd" d="M 124.5,223.5 C 124.5,225.5 123.5,226.5 121.5,226.5C 122.167,225.167 123.167,224.167 124.5,223.5 Z"/></g>
</svg>
